# 3ds Max Wavefront OBJ Exporter v0.97b - (c)2007 guruware
# File Created: 02.03.2018 17:14:18

mtllib jovial.mtl

#
# object guard
#

v  0.0179 3.3837 -1.0857
v  -0.5399 3.4840 -1.0831
v  -0.6091 3.4397 -14.3784
v  -0.0514 3.3394 -14.3810
v  -1.0297 3.7690 -1.0815
v  -1.0990 3.7247 -14.3768
v  -1.3925 4.2044 -1.0811
v  -1.4618 4.1601 -14.3764
v  -1.5846 4.7376 -1.0819
v  -1.6538 4.6933 -14.3772
v  -1.5827 5.3043 -1.0838
v  -1.6519 5.2600 -14.3791
v  -1.3870 5.8362 -1.0866
v  -1.4563 5.7919 -14.3819
v  -1.0213 6.2691 -1.0899
v  -1.0905 6.2247 -14.3852
v  -0.5296 6.5508 -1.0934
v  -0.5988 6.5064 -14.3887
v  0.0288 6.6473 -1.0966
v  -0.0404 6.6030 -14.3919
v  0.5866 6.5470 -1.0992
v  0.5174 6.5027 -14.3945
v  1.0764 6.2620 -1.1008
v  1.0072 6.2176 -14.3961
v  1.4393 5.8266 -1.1012
v  1.3700 5.7823 -14.3965
v  1.6313 5.2934 -1.1005
v  1.5621 5.2491 -14.3958
v  1.6294 4.7267 -1.0986
v  1.5601 4.6824 -14.3939
v  1.4338 4.1948 -1.0958
v  1.3645 4.1505 -14.3911
v  1.0680 3.7619 -1.0924
v  0.9988 3.7176 -14.3877
v  0.5763 3.4802 -1.0889
v  0.5071 3.4359 -14.3842
v  2.2749 4.1008 -21.2217
v  1.3277 4.1008 -21.8884
v  1.3277 5.8184 -21.8884
v  2.2749 5.8184 -21.2217
v  0.2096 4.1008 -22.1910
v  0.2096 5.8184 -22.1910
v  -0.9446 4.1008 -22.0929
v  -0.9446 5.8184 -22.0929
v  -1.9957 4.1008 -21.6059
v  -1.9957 5.8184 -21.6059
v  -2.8168 4.1008 -20.7888
v  -2.8168 5.8184 -20.7888
v  -3.3089 4.1008 -19.7402
v  -3.3089 5.8184 -19.7402
v  -3.4127 4.1008 -18.5865
v  -3.4127 5.8184 -18.5865
v  -3.1156 4.1008 -17.4669
v  -3.1156 5.8184 -17.4669
v  -2.4535 4.1008 -16.5164
v  -2.4535 5.8184 -16.5164
v  -1.5063 4.1008 -15.8497
v  -1.5063 5.8184 -15.8497
v  -0.3881 4.1008 -15.5471
v  -0.3881 5.8184 -15.5471
v  0.7660 4.1008 -15.6452
v  0.7660 5.8184 -15.6452
v  1.8171 4.1008 -16.1322
v  1.8171 5.8184 -16.1322
v  2.6382 4.1008 -16.9493
v  2.6382 5.8184 -16.9493
v  3.1303 4.1008 -17.9979
v  3.1303 5.8184 -17.9979
v  3.2341 4.1008 -19.1516
v  3.2341 5.8184 -19.1516
v  2.9370 4.1008 -20.2712
v  2.9370 5.8184 -20.2712
v  -0.0315 4.2342 -13.2176
v  -3.3855 4.2342 -16.5881
v  -0.0150 4.2342 -19.9422
v  3.3391 4.2342 -16.5716
v  -0.0315 5.8044 -13.2176
v  3.3391 5.8044 -16.5716
v  -0.0150 5.8044 -19.9422
v  -3.3855 5.8044 -16.5881
v  -0.0893 4.1008 -18.8691
v  -0.0893 5.8184 -18.8691
v  0.0234 5.0155 -1.0912
v  -0.0459 4.9712 -14.3865
v  0.0000 5.7756 82.1066
v  -2.3913 5.3848 82.8320
v  -0.0000 5.3848 86.5505
v  0.0000 6.0988 0.3204
v  -2.7084 5.3848 0.9858
v  2.3913 5.3848 82.8320
v  2.7084 5.3848 0.9858
v  0.0000 5.3848 0.3204
v  0.0000 4.9939 82.1066
v  0.0000 4.6708 0.3204
v  -0.9558 3.8798 -1.1381
v  -2.5593 3.8798 -0.8601
v  -2.5593 6.7042 -0.8601
v  -0.9558 6.7042 -1.1381
v  -3.8037 3.8798 -0.4962
v  -5.6337 3.8798 0.2717
v  -5.6337 6.7042 0.2717
v  -3.8037 6.7042 -0.4962
v  -6.6790 3.8798 1.0024
v  -8.0819 3.8798 2.5145
v  -8.0819 6.7042 2.5145
v  -6.6790 6.7042 1.0024
v  -8.6017 3.8798 3.6408
v  -8.7825 3.8798 5.1783
v  -8.7825 6.7042 5.1783
v  -8.6017 6.7042 3.6408
v  -5.2098 3.8798 5.0957
v  -5.2098 6.7042 5.0957
v  -4.5673 3.8798 4.6691
v  -4.5673 6.7042 4.6691
v  -6.5908 3.8798 3.5654
v  -6.5908 6.7042 3.5654
v  -6.4061 3.8798 3.3601
v  -6.4061 6.7042 3.3601
v  -3.4149 3.8798 1.5136
v  -2.8467 3.8798 1.4049
v  -2.8467 6.7042 1.4049
v  -3.4149 6.7042 1.5136
v  -0.8087 3.8798 1.1009
v  -0.8087 6.7042 1.1009
v  -3.1815 3.8798 -0.6781
v  -3.1815 6.7042 -0.6781
v  -6.1959 3.8798 0.5806
v  -6.1959 6.7042 0.5806
v  -8.3418 3.8798 3.0777
v  -8.4337 6.7042 3.0352
v  0.0147 3.8798 -1.2246
v  0.0147 6.7042 -1.2246
v  -5.7215 3.8798 2.7661
v  -5.7584 6.7042 2.7235
v  -5.0702 3.8798 2.1943
v  -4.2426 3.8798 1.8540
v  -4.2426 6.7042 1.8540
v  -5.0702 6.7042 2.1943
v  0.0147 3.8798 1.0753
v  0.0147 6.7042 1.0753
v  0.9853 3.8798 -1.1381
v  0.9853 6.7042 -1.1381
v  2.5888 6.7042 -0.8601
v  2.5888 3.8798 -0.8601
v  3.8332 3.8798 -0.4962
v  3.8332 6.7042 -0.4962
v  5.6632 6.7042 0.2717
v  5.6632 3.8798 0.2717
v  6.7085 3.8798 1.0024
v  6.7085 6.7042 1.0024
v  8.1113 6.7042 2.5145
v  8.1113 3.8798 2.5145
v  8.6312 3.8798 3.6408
v  8.6312 6.7042 3.6408
v  8.8119 6.7042 5.1783
v  8.8119 3.8798 5.1783
v  5.2392 6.7042 5.0957
v  5.2392 3.8798 5.0957
v  4.5968 6.7042 4.6691
v  4.5968 3.8798 4.6691
v  6.6202 6.7042 3.5654
v  6.6202 3.8798 3.5654
v  6.4355 6.7042 3.3601
v  6.4355 3.8798 3.3601
v  3.4444 3.8798 1.5136
v  3.4444 6.7042 1.5136
v  2.8762 6.7042 1.4049
v  2.8762 3.8798 1.4049
v  0.8382 6.7042 1.1009
v  0.8382 3.8798 1.1009
v  3.2110 6.7042 -0.6781
v  3.2110 3.8798 -0.6781
v  6.2253 6.7042 0.5806
v  6.2253 3.8798 0.5806
v  8.4631 6.7042 3.0352
v  8.3713 3.8798 3.0777
v  5.7879 6.7042 2.7235
v  5.7510 3.8798 2.7661
v  5.0997 3.8798 2.1943
v  5.0997 6.7042 2.1943
v  4.2720 6.7042 1.8540
v  4.2720 3.8798 1.8540
# 182 vertices

vn 0.0010 -0.7401 0.6725
vn -0.2527 -0.6945 0.6737
vn -0.2597 -0.6989 -0.6664
vn -0.0060 -0.7446 -0.6675
vn -0.4755 -0.5648 0.6744
vn -0.4826 -0.5693 -0.6656
vn -0.6407 -0.3668 0.6746
vn -0.6476 -0.3712 -0.6654
vn -0.7280 -0.1242 0.6742
vn -0.7350 -0.1287 -0.6658
vn -0.7271 0.1336 0.6734
vn -0.7341 0.1291 -0.6667
vn -0.6381 0.3756 0.6721
vn -0.6451 0.3711 -0.6679
vn -0.4717 0.5725 0.6706
vn -0.4787 0.5680 -0.6695
vn -0.2481 0.7006 0.6690
vn -0.2551 0.6962 -0.6710
vn 0.0060 0.7446 0.6675
vn -0.0010 0.7401 -0.6725
vn 0.2597 0.6989 0.6664
vn 0.2527 0.6945 -0.6737
vn 0.4826 0.5693 0.6656
vn 0.4756 0.5648 -0.6744
vn 0.6476 0.3712 0.6654
vn 0.6407 0.3668 -0.6746
vn 0.7350 0.1287 0.6658
vn 0.7280 0.1242 -0.6743
vn 0.7341 -0.1291 0.6667
vn 0.7271 -0.1336 -0.6734
vn 0.6451 -0.3711 0.6679
vn 0.6381 -0.3756 -0.6721
vn 0.4787 -0.5680 0.6694
vn 0.4718 -0.5725 -0.6706
vn 0.2550 -0.6962 0.6710
vn 0.2481 -0.7006 -0.6690
vn 0.5262 -0.6701 -0.5236
vn 0.3154 -0.6700 -0.6720
vn 0.3154 0.6700 -0.6720
vn 0.5262 0.6701 -0.5236
vn 0.0665 -0.6700 -0.7393
vn 0.0665 0.6700 -0.7393
vn -0.1904 -0.6700 -0.7175
vn -0.1904 0.6700 -0.7175
vn -0.4243 -0.6700 -0.6091
vn -0.4243 0.6700 -0.6091
vn -0.6070 -0.6701 -0.4273
vn -0.6070 0.6701 -0.4273
vn -0.7165 -0.6701 -0.1939
vn -0.7165 0.6701 -0.1939
vn -0.7396 -0.6701 0.0629
vn -0.7396 0.6701 0.0629
vn -0.6736 -0.6700 0.3121
vn -0.6736 0.6700 0.3121
vn -0.5262 -0.6700 0.5236
vn -0.5262 0.6700 0.5236
vn -0.3154 -0.6700 0.6720
vn -0.3154 0.6700 0.6720
vn -0.0665 -0.6701 0.7393
vn -0.0665 0.6701 0.7393
vn 0.1904 -0.6701 0.7175
vn 0.1904 0.6701 0.7175
vn 0.4243 -0.6700 0.6091
vn 0.4243 0.6700 0.6091
vn 0.6070 -0.6700 0.4273
vn 0.6070 0.6700 0.4273
vn 0.7166 -0.6700 0.1939
vn 0.7166 0.6700 0.1939
vn 0.7397 -0.6700 -0.0629
vn 0.7397 0.6700 -0.0629
vn 0.6735 -0.6701 -0.3120
vn 0.6735 0.6701 -0.3120
vn -0.0020 -0.5774 0.8165
vn -0.8165 -0.5774 -0.0020
vn 0.0020 -0.5774 -0.8165
vn 0.8165 -0.5774 0.0020
vn -0.0020 0.5774 0.8165
vn 0.8165 0.5774 0.0020
vn 0.0020 0.5774 -0.8165
vn -0.8165 0.5774 -0.0020
vn 0.0000 -1.0000 -0.0000
vn 0.0000 1.0000 0.0000
vn 0.0052 0.0033 1.0000
vn -0.0052 -0.0033 -1.0000
vn 0.0000 0.9993 0.0379
vn -0.9586 -0.0000 0.2846
vn 0.0000 0.0000 1.0000
vn 0.0000 0.7114 -0.7028
vn -0.9064 0.0000 -0.4225
vn 0.9586 -0.0000 0.2846
vn 0.9064 -0.0000 -0.4225
vn -0.0000 0.0000 -1.0000
vn 0.0000 -0.9993 0.0379
vn 0.0000 -0.7114 -0.7028
vn -0.0931 -0.6979 -0.7101
vn -0.1627 -0.6946 -0.7007
vn -0.1627 0.6946 -0.7007
vn -0.0931 0.6979 -0.7101
vn -0.2405 -0.6946 -0.6780
vn -0.3125 -0.6955 -0.6471
vn -0.3125 0.6955 -0.6471
vn -0.2405 0.6946 -0.6780
vn -0.5004 -0.6955 -0.5157
vn -0.6142 -0.6734 -0.4114
vn -0.5667 0.6903 -0.4499
vn -0.5004 0.6955 -0.5157
vn -0.7115 -0.6734 -0.2006
vn -0.6075 -0.5703 0.5529
vn -0.6075 0.5703 0.5529
vn -0.7100 0.6903 -0.1394
vn 0.2280 -0.6496 0.7253
vn 0.2280 0.6496 0.7253
vn 0.8304 -0.5560 -0.0361
vn 0.8304 0.5560 -0.0361
vn 0.3612 -0.9304 -0.0618
vn 0.3612 0.9304 -0.0618
vn 0.4854 -0.7213 0.4941
vn 0.5058 0.7141 0.4839
vn 0.1951 -0.7304 0.6546
vn 0.1179 -0.7118 0.6925
vn 0.1179 0.7118 0.6925
vn 0.1951 0.7304 0.6546
vn 0.0620 -0.7205 0.6906
vn 0.0620 0.7205 0.6906
vn -0.1985 -0.7071 -0.6787
vn -0.1985 0.7071 -0.6787
vn -0.4181 -0.6837 -0.5981
vn -0.4181 0.6837 -0.5981
vn -0.6304 -0.7196 -0.2910
vn -0.6826 0.6593 -0.3151
vn -0.0000 -0.6877 -0.7260
vn -0.0000 0.6877 -0.7260
vn 0.4700 -0.6994 0.5385
vn 0.4502 0.7279 0.5173
vn 0.3510 -0.7460 0.5658
vn 0.2689 -0.7071 0.6540
vn 0.2689 0.7071 0.6540
vn 0.3369 0.7381 0.5845
vn -0.0000 -0.7142 0.6999
vn -0.0000 0.7142 0.6999
vn 0.0931 -0.6979 -0.7101
vn 0.0931 0.6979 -0.7101
vn 0.1627 0.6946 -0.7007
vn 0.1627 -0.6946 -0.7007
vn 0.2405 -0.6946 -0.6780
vn 0.2405 0.6946 -0.6780
vn 0.3125 0.6955 -0.6471
vn 0.3125 -0.6955 -0.6471
vn 0.5004 -0.6955 -0.5157
vn 0.5004 0.6955 -0.5157
vn 0.5667 0.6902 -0.4499
vn 0.6142 -0.6734 -0.4114
vn 0.7115 -0.6734 -0.2006
vn 0.7100 0.6902 -0.1394
vn 0.6075 0.5704 0.5528
vn 0.6075 -0.5704 0.5528
vn -0.2281 0.6496 0.7252
vn -0.2281 -0.6496 0.7252
vn -0.8304 0.5560 -0.0361
vn -0.8304 -0.5560 -0.0361
vn -0.3612 0.9304 -0.0618
vn -0.3612 -0.9304 -0.0618
vn -0.5058 0.7141 0.4839
vn -0.4854 -0.7213 0.4941
vn -0.1951 -0.7304 0.6546
vn -0.1951 0.7304 0.6546
vn -0.1179 0.7118 0.6925
vn -0.1179 -0.7118 0.6925
vn -0.0620 0.7205 0.6907
vn -0.0620 -0.7205 0.6907
vn 0.1985 0.7071 -0.6787
vn 0.1985 -0.7071 -0.6787
vn 0.4181 0.6837 -0.5981
vn 0.4181 -0.6837 -0.5981
vn 0.6826 0.6593 -0.3151
vn 0.6304 -0.7197 -0.2910
vn -0.4502 0.7279 0.5173
vn -0.4700 -0.6994 0.5385
vn -0.3510 -0.7460 0.5658
vn -0.3369 0.7381 0.5845
vn -0.2689 0.7071 0.6540
vn -0.2689 -0.7071 0.6540
# 182 vertex normals

vt 0.7500 0.0000 1.0000
vt 0.8056 0.0000 1.0000
vt 0.8056 1.0000 1.0000
vt 0.7500 1.0000 1.0000
vt 0.8611 0.0000 1.0000
vt 0.8611 1.0000 1.0000
vt 0.9167 0.0000 1.0000
vt 0.9167 1.0000 1.0000
vt 0.9722 0.0000 1.0000
vt 0.9722 1.0000 1.0000
vt -0.0278 0.0000 1.0000
vt 0.0278 0.0000 1.0000
vt 0.0278 1.0000 1.0000
vt -0.0278 1.0000 1.0000
vt 0.0833 0.0000 1.0000
vt 0.0833 1.0000 1.0000
vt 0.1389 0.0000 1.0000
vt 0.1389 1.0000 1.0000
vt 0.1944 0.0000 1.0000
vt 0.1944 1.0000 1.0000
vt 0.2500 0.0000 1.0000
vt 0.2500 1.0000 1.0000
vt 0.3056 0.0000 1.0000
vt 0.3056 1.0000 1.0000
vt 0.3611 0.0000 1.0000
vt 0.3611 1.0000 1.0000
vt 0.4167 0.0000 1.0000
vt 0.4167 1.0000 1.0000
vt 0.4722 0.0000 1.0000
vt 0.4722 1.0000 1.0000
vt 0.5278 0.0000 1.0000
vt 0.5278 1.0000 1.0000
vt 0.5833 0.0000 1.0000
vt 0.5833 1.0000 1.0000
vt 0.6389 0.0000 1.0000
vt 0.6389 1.0000 1.0000
vt 0.6944 0.0000 1.0000
vt 0.6944 1.0000 1.0000
vt 1.0000 0.0000 0.0000
vt 1.0000 1.0000 0.0000
vt 0.0000 1.0000 0.0000
vt 0.0000 0.0000 0.0000
vt 0.5241 0.0000 0.0623
vt 0.3400 0.0000 0.0000
vt 0.1953 0.0000 -0.3473
vt 0.0874 0.0000 -0.6527
vt 0.0292 0.0000 -0.8794
vt 0.0278 0.0000 -1.0000
vt 0.0833 0.0000 -1.0000
vt 0.1891 0.0000 -0.8794
vt 0.3325 0.0000 -0.6527
vt 0.4960 0.0000 -0.3473
vt 0.6600 0.0000 -0.0000
vt 0.8047 0.0000 0.3473
vt 0.9126 0.0000 0.6527
vt 0.9708 0.0000 0.8794
vt 0.5438 1.0000 0.1178
vt 0.9708 1.0000 0.8794
vt 0.9126 1.0000 0.6527
vt 0.8047 1.0000 0.3473
vt 0.6600 1.0000 0.0000
vt 0.4960 1.0000 -0.3473
vt 0.3325 1.0000 -0.6527
vt 0.1891 1.0000 -0.8794
vt 0.0833 1.0000 -1.0000
vt 0.0278 1.0000 -1.0000
vt 0.0292 1.0000 -0.8794
vt 0.0874 1.0000 -0.6527
vt 0.1953 1.0000 -0.3473
vt 0.3400 0.0000 -0.0000
vt 0.0409 1.0000 0.0000
vt 0.0010 1.0000 0.0000
vt 0.8163 1.0000 0.0000
vt 0.1837 1.0000 0.0000
vt 0.0000 0.7035 0.0000
vt 0.6929 0.0000 0.0000
vt 0.0918 1.0000 0.0000
vt 0.0000 0.8518 0.0000
vt 0.0000 0.9259 0.0000
vt 0.9082 1.0000 0.0000
vt 0.8464 0.0000 0.0000
# 81 texture coords

o guard
g guard
usemtl 07___Default
s 8
f 1/1/1 2/2/2 3/3/3 4/4/4 
f 2/2/2 5/5/5 6/6/6 3/3/3 
f 5/5/5 7/7/7 8/8/8 6/6/6 
f 7/7/7 9/9/9 10/10/10 8/8/8 
f 9/11/9 11/12/11 12/13/12 10/14/10 
f 11/12/11 13/15/13 14/16/14 12/13/12 
f 13/15/13 15/17/15 16/18/16 14/16/14 
f 15/17/15 17/19/17 18/20/18 16/18/16 
f 17/19/17 19/21/19 20/22/20 18/20/18 
f 19/21/19 21/23/21 22/24/22 20/22/20 
f 21/23/21 23/25/23 24/26/24 22/24/22 
f 23/25/23 25/27/25 26/28/26 24/26/24 
f 25/27/25 27/29/27 28/30/28 26/28/26 
f 27/29/27 29/31/29 30/32/30 28/30/28 
f 29/31/29 31/33/31 32/34/32 30/32/30 
f 31/33/31 33/35/33 34/36/34 32/34/32 
f 33/35/33 35/37/35 36/38/36 34/36/34 
f 35/37/35 1/1/1 4/4/4 36/38/36 
f 37/1/37 38/2/38 39/3/39 40/4/40 
f 38/2/38 41/5/41 42/6/42 39/3/39 
f 41/5/41 43/7/43 44/8/44 42/6/42 
f 43/7/43 45/9/45 46/10/46 44/8/44 
f 45/11/45 47/12/47 48/13/48 46/14/46 
f 47/12/47 49/15/49 50/16/50 48/13/48 
f 49/15/49 51/17/51 52/18/52 50/16/50 
f 51/17/51 53/19/53 54/20/54 52/18/52 
f 53/19/53 55/21/55 56/22/56 54/20/54 
f 55/21/55 57/23/57 58/24/58 56/22/56 
f 57/23/57 59/25/59 60/26/60 58/24/58 
f 59/25/59 61/27/61 62/28/62 60/26/60 
f 61/27/61 63/29/63 64/30/64 62/28/62 
f 63/29/63 65/31/65 66/32/66 64/30/64 
f 65/31/65 67/33/67 68/34/68 66/32/66 
f 67/33/67 69/35/69 70/36/70 68/34/68 
f 69/35/69 71/37/71 72/38/72 70/36/70 
f 71/37/71 37/1/37 40/4/40 72/38/72 
s 2
f 73/39/73 74/40/74 75/41/75 76/42/76 
s 4
f 77/42/77 78/39/78 79/40/79 80/41/80 
s 8
f 73/42/73 76/39/76 78/40/78 77/41/77 
s 16
f 76/42/76 75/39/75 79/40/79 78/41/78 
s 32
f 75/42/75 74/39/74 80/40/80 79/41/79 
s 64
f 74/42/74 73/39/73 77/40/77 80/41/80 
s off
f 38/2/38 37/1/37 81/43/81 
f 37/1/37 71/44/71 81/43/81 
f 71/44/71 69/45/69 81/43/81 
f 69/45/69 67/46/67 81/43/81 
f 67/46/67 65/47/65 81/43/81 
f 65/47/65 63/48/63 81/43/81 
f 63/48/63 61/49/61 81/43/81 
f 61/49/61 59/50/59 81/43/81 
f 59/50/59 57/51/57 81/43/81 
f 57/51/57 55/52/55 81/43/81 
f 55/52/55 53/53/53 81/43/81 
f 53/53/53 51/54/51 81/43/81 
f 51/54/51 49/55/49 81/43/81 
f 49/55/49 47/56/47 81/43/81 
f 47/56/47 45/9/45 81/43/81 
f 45/9/45 43/7/43 81/43/81 
f 43/7/43 41/5/41 81/43/81 
f 41/5/41 38/2/38 81/43/81 
f 40/4/40 39/3/39 82/57/82 
f 39/3/39 42/6/42 82/57/82 
f 42/6/42 44/8/44 82/57/82 
f 44/8/44 46/10/46 82/57/82 
f 46/10/46 48/58/48 82/57/82 
f 48/58/48 50/59/50 82/57/82 
f 50/59/50 52/60/52 82/57/82 
f 52/60/52 54/61/54 82/57/82 
f 54/61/54 56/62/56 82/57/82 
f 56/62/56 58/63/58 82/57/82 
f 58/63/58 60/64/60 82/57/82 
f 60/64/60 62/65/62 82/57/82 
f 62/65/62 64/66/64 82/57/82 
f 64/66/64 66/67/66 82/57/82 
f 66/67/66 68/68/68 82/57/82 
f 68/68/68 70/69/70 82/57/82 
f 70/69/70 72/38/72 82/57/82 
f 72/38/72 40/4/40 82/57/82 
f 2/2/2 1/1/1 83/43/83 
f 1/1/1 35/70/35 83/43/83 
f 35/70/35 33/45/33 83/43/83 
f 33/45/33 31/46/31 83/43/83 
f 31/46/31 29/47/29 83/43/83 
f 29/47/29 27/48/27 83/43/83 
f 27/48/27 25/49/25 83/43/83 
f 25/49/25 23/50/23 83/43/83 
f 23/50/23 21/51/21 83/43/83 
f 21/51/21 19/52/19 83/43/83 
f 19/52/19 17/53/17 83/43/83 
f 17/53/17 15/54/15 83/43/83 
f 15/54/15 13/55/13 83/43/83 
f 13/55/13 11/56/11 83/43/83 
f 11/56/11 9/9/9 83/43/83 
f 9/9/9 7/7/7 83/43/83 
f 7/7/7 5/5/5 83/43/83 
f 5/5/5 2/2/2 83/43/83 
f 4/4/4 3/3/3 84/57/84 
f 3/3/3 6/6/6 84/57/84 
f 6/6/6 8/8/8 84/57/84 
f 8/8/8 10/10/10 84/57/84 
f 10/10/10 12/58/12 84/57/84 
f 12/58/12 14/59/14 84/57/84 
f 14/59/14 16/60/16 84/57/84 
f 16/60/16 18/61/18 84/57/84 
f 18/61/18 20/62/20 84/57/84 
f 20/62/20 22/63/22 84/57/84 
f 22/63/22 24/64/24 84/57/84 
f 24/64/24 26/65/26 84/57/84 
f 26/65/26 28/66/28 84/57/84 
f 28/66/28 30/67/30 84/57/84 
f 30/67/30 32/68/32 84/57/84 
f 32/68/32 34/69/34 84/57/84 
f 34/69/34 36/38/36 84/57/84 
f 36/38/36 4/4/4 84/57/84 
f 85/71/85 86/72/86 87/72/87 
f 88/40/88 89/40/89 86/72/86 85/71/85 
f 88/40/88 85/71/85 90/72/90 91/40/91 
s 2
f 88/40/88 92/40/92 89/40/89 
f 88/40/88 91/40/91 92/40/92 
s off
f 90/72/90 85/71/85 87/72/87 
f 93/71/93 87/72/87 86/72/86 
f 94/40/94 93/71/93 86/72/86 89/40/89 
f 94/40/94 91/40/91 90/72/90 93/71/93 
s 2
f 94/40/94 89/40/89 92/40/92 
f 94/40/94 92/40/92 91/40/91 
s off
f 90/72/90 87/72/87 93/71/93 
s 2
f 95/73/95 96/74/96 97/74/97 98/73/98 
f 99/41/99 100/41/100 101/41/101 102/41/102 
f 103/41/103 104/41/104 105/41/105 106/41/106 
f 107/75/107 108/42/108 109/42/109 110/75/110 
s 4
f 108/42/108 111/42/111 112/42/112 109/42/109 
s 2
f 111/42/111 113/42/113 114/42/114 112/42/112 
s 4
f 113/42/113 115/42/115 116/42/116 114/42/114 
s 2
f 115/42/115 117/42/117 118/42/118 116/42/116 
f 119/42/119 120/42/120 121/42/121 122/42/122 
f 120/42/120 123/76/123 124/76/124 121/42/121 
f 96/74/96 125/77/125 126/77/126 97/74/97 
f 100/41/100 127/41/127 128/41/128 101/41/101 
f 104/41/104 129/78/129 130/79/130 105/41/105 
f 131/80/131 95/73/95 98/73/98 132/80/132 
f 125/77/125 99/41/99 102/41/102 126/77/126 
f 127/41/127 103/41/103 106/41/106 128/41/128 
f 129/78/129 107/75/107 110/75/110 130/79/130 
f 117/42/117 133/42/133 134/42/134 118/42/118 
f 135/42/135 136/42/136 137/42/137 138/42/138 
f 123/76/123 139/81/139 140/81/140 124/76/124 
s 6
f 133/42/133 135/42/135 138/42/138 134/42/134 
s 2
f 136/42/136 119/42/119 122/42/122 137/42/137 
f 141/73/141 142/73/142 143/74/143 144/74/144 
f 145/41/145 146/41/146 147/41/147 148/41/148 
f 149/41/149 150/41/150 151/41/151 152/41/152 
f 153/75/153 154/75/154 155/42/155 156/42/156 
s 4
f 156/42/156 155/42/155 157/42/157 158/42/158 
s 2
f 158/42/158 157/42/157 159/42/159 160/42/160 
s 4
f 160/42/160 159/42/159 161/42/161 162/42/162 
s 2
f 162/42/162 161/42/161 163/42/163 164/42/164 
f 165/42/165 166/42/166 167/42/167 168/42/168 
f 168/42/168 167/42/167 169/76/169 170/76/170 
f 144/74/144 143/74/143 171/77/171 172/77/172 
f 148/41/148 147/41/147 173/41/173 174/41/174 
f 152/41/152 151/41/151 175/79/175 176/78/176 
f 131/80/131 132/80/132 142/73/142 141/73/141 
f 172/77/172 171/77/171 146/41/146 145/41/145 
f 174/41/174 173/41/173 150/41/150 149/41/149 
f 176/78/176 175/79/175 154/75/154 153/75/153 
f 164/42/164 163/42/163 177/42/177 178/42/178 
f 179/42/179 180/42/180 181/42/181 182/42/182 
f 170/76/170 169/76/169 140/81/140 139/81/139 
s 6
f 178/42/178 177/42/177 180/42/180 179/42/179 
s 2
f 182/42/182 181/42/181 166/42/166 165/42/165 
s off
f 97/74/97 121/42/121 124/76/124 98/73/98 
f 95/73/95 123/76/123 120/42/120 96/74/96 
f 161/42/161 159/42/159 157/42/157 
f 112/42/112 114/42/114 116/42/116 
f 115/42/115 113/42/113 111/42/111 
f 158/42/158 160/42/160 162/42/162 
f 109/42/109 112/42/112 116/42/116 
f 161/42/161 157/42/157 155/42/155 
f 156/42/156 158/42/158 162/42/162 
f 115/42/115 111/42/111 108/42/108 
f 115/42/115 108/42/108 107/75/107 
f 115/42/115 107/75/107 129/78/129 
f 115/42/115 129/78/129 104/41/104 
f 117/42/117 115/42/115 104/41/104 
f 110/75/110 109/42/109 116/42/116 
f 130/79/130 110/75/110 116/42/116 
f 105/41/105 130/79/130 116/42/116 
f 105/41/105 116/42/116 118/42/118 
f 161/42/161 155/42/155 154/75/154 
f 161/42/161 154/75/154 175/79/175 
f 161/42/161 175/79/175 151/41/151 
f 163/42/163 161/42/161 151/41/151 
f 153/75/153 156/42/156 162/42/162 
f 176/78/176 153/75/153 162/42/162 
f 152/41/152 176/78/176 162/42/162 
f 152/41/152 162/42/162 164/42/164 
f 152/41/152 164/42/164 178/42/178 
f 149/41/149 152/41/152 178/42/178 
f 133/42/133 117/42/117 104/41/104 
f 133/42/133 104/41/104 103/41/103 
f 105/41/105 118/42/118 134/42/134 
f 106/41/106 105/41/105 134/42/134 
f 177/42/177 163/42/163 151/41/151 
f 177/42/177 151/41/151 150/41/150 
f 128/41/128 106/41/106 138/42/138 
f 106/41/106 134/42/134 138/42/138 
f 180/42/180 177/42/177 150/41/150 
f 180/42/180 150/41/150 173/41/173 
f 135/42/135 133/42/133 103/41/103 
f 135/42/135 103/41/103 127/41/127 
f 149/41/149 178/42/178 179/42/179 
f 174/41/174 149/41/149 179/42/179 
f 148/41/148 174/41/174 179/42/179 182/42/182 
f 145/41/145 148/41/148 182/42/182 165/42/165 
f 172/77/172 145/41/145 165/42/165 168/42/168 
f 144/74/144 172/77/172 168/42/168 
f 141/73/141 144/74/144 168/42/168 170/76/170 
f 131/80/131 141/73/141 170/76/170 139/81/139 
f 95/73/95 131/80/131 139/81/139 123/76/123 
f 120/42/120 125/77/125 96/74/96 
f 120/42/120 119/42/119 99/41/99 125/77/125 
f 119/42/119 136/42/136 100/41/100 99/41/99 
f 136/42/136 135/42/135 127/41/127 100/41/100 
f 101/41/101 128/41/128 138/42/138 137/42/137 
f 102/41/102 101/41/101 137/42/137 122/42/122 
f 140/81/140 169/76/169 142/73/142 132/80/132 
f 124/76/124 140/81/140 132/80/132 98/73/98 
f 97/74/97 126/77/126 121/42/121 
f 126/77/126 102/41/102 122/42/122 121/42/121 
f 169/76/169 167/42/167 143/74/143 142/73/142 
f 167/42/167 171/77/171 143/74/143 
f 167/42/167 166/42/166 146/41/146 171/77/171 
f 166/42/166 181/42/181 147/41/147 146/41/146 
f 181/42/181 180/42/180 173/41/173 147/41/147 
# 110 polygons - 124 triangles

